<svg width="900" height="520" xmlns="http://www.w3.org/2000/svg">\n<rect width="100%" height="100%" fill="white"/>\n<text x="450" y="30" text-anchor="middle" font-size="20" font-family="Arial" font-weight="bold">Target-Domain Validation Loss on Franka</text>\n<line x1="90" y1="50" x2="90" y2="390" stroke="black"/>\n<line x1="90" y1="390" x2="870" y2="390" stroke="black"/>\n<rect x="120" y="381.95398259740574" width="70" height="8.04601740259426" fill="#4C78A8"/>\n<text x="155.0" y="373.95398259740574" text-anchor="middle" font-size="12" font-family="Arial">0.378</text>\n<text x="155.0" y="410" text-anchor="end" font-size="11" font-family="Arial" transform="rotate(-35 155.0,410)">Target-only</text>\n<rect x="235" y="354.4902602190793" width="70" height="35.50973978092071" fill="#59A14F"/>\n<text x="270.0" y="346.4902602190793" text-anchor="middle" font-size="12" font-family="Arial">1.669</text>\n<text x="270.0" y="410" text-anchor="end" font-size="11" font-family="Arial" transform="rotate(-35 270.0,410)">Routed piper5</text>\n<rect x="350" y="333.6694733082524" width="70" height="56.33052669174759" fill="#F28E2B"/>\n<text x="385.0" y="325.6694733082524" text-anchor="middle" font-size="12" font-family="Arial">2.647</text>\n<text x="385.0" y="410" text-anchor="end" font-size="11" font-family="Arial" transform="rotate(-35 385.0,410)">Naive piper50</text>\n<rect x="465" y="323.6574814999689" width="70" height="66.34251850003108" fill="#E15759"/>\n<text x="500.0" y="315.6574814999689" text-anchor="middle" font-size="12" font-family="Arial">3.118</text>\n<text x="500.0" y="410" text-anchor="end" font-size="11" font-family="Arial" transform="rotate(-35 500.0,410)">Aloha naive mix</text>\n<rect x="580" y="237.8242526538795" width="70" height="152.1757473461205" fill="#B07AA1"/>\n<text x="615.0" y="229.8242526538795" text-anchor="middle" font-size="12" font-family="Arial">7.152</text>\n<text x="615.0" y="410" text-anchor="end" font-size="11" font-family="Arial" transform="rotate(-35 615.0,410)">Piper source-only</text>\n<rect x="695" y="94.3478260869565" width="70" height="295.6521739130435" fill="#9C755F"/>\n<text x="730.0" y="86.3478260869565" text-anchor="middle" font-size="12" font-family="Arial">13.895</text>\n<text x="730.0" y="410" text-anchor="end" font-size="11" font-family="Arial" transform="rotate(-35 730.0,410)">Aloha source-only</text>\n<text x="20" y="220.0" text-anchor="middle" font-size="14" font-family="Arial" transform="rotate(-90 20,220.0)">Target-val loss</text>\n</svg>